<svg width="190" height="24" viewBox="0 0 190 24" fill="none" xmlns="http://www.w3.org/2000/svg">
<g clip-path="url(#clip0_1304_106)">
<path fill-rule="evenodd" clip-rule="evenodd" d="M11.2432 0H22.4865C28.696 0 33.7297 5.03377 33.7297 11.2432C33.7297 17.4527 28.696 22.4865 22.4865 22.4865H11.2432C5.03377 22.4865 0 17.4527 0 11.2432C0 5.03377 5.03377 0 11.2432 0ZM187.027 12.5405C187.386 12.5405 187.722 12.4735 188.036 12.3395C188.349 12.2054 188.625 12.0195 188.863 11.7816C189.101 11.5438 189.286 11.2681 189.421 10.9546C189.555 10.6411 189.622 10.3049 189.622 9.94595C189.622 9.58703 189.555 9.25082 189.421 8.9373C189.286 8.62379 189.101 8.34811 188.863 8.11027C188.625 7.87244 188.349 7.68649 188.036 7.55243C187.722 7.41838 187.386 7.35135 187.027 7.35135C186.668 7.35135 186.332 7.41838 186.018 7.55243C185.705 7.68649 185.429 7.87244 185.191 8.11027C184.954 8.34811 184.768 8.62379 184.634 8.9373C184.499 9.25082 184.432 9.58703 184.432 9.94595C184.432 10.3049 184.499 10.6411 184.634 10.9546C184.768 11.2681 184.954 11.5438 185.191 11.7816C185.429 12.0195 185.705 12.2054 186.018 12.3395C186.332 12.4735 186.668 12.5405 187.027 12.5405ZM187.027 12.0573C186.638 12.0573 186.284 11.9622 185.965 11.7719C185.646 11.5816 185.391 11.327 185.201 11.0081C185.011 10.6892 184.916 10.3351 184.916 9.94595C184.916 9.55676 185.011 9.20271 185.201 8.88379C185.391 8.56487 185.646 8.31027 185.965 8.12C186.284 7.92973 186.638 7.83459 187.027 7.83459C187.416 7.83459 187.77 7.92973 188.089 8.12C188.408 8.31027 188.663 8.56487 188.853 8.88379C189.043 9.20271 189.138 9.55676 189.138 9.94595C189.138 10.3351 189.043 10.6892 188.853 11.0081C188.663 11.327 188.408 11.5816 188.089 11.7719C187.77 11.9622 187.416 12.0573 187.027 12.0573ZM186.566 11.1135L186.566 10.2541H187.224L187.672 11.1135H188.139L187.629 10.1628L187.635 10.16C187.741 10.1036 187.831 10.0248 187.903 9.92371L187.927 9.88919C188.004 9.77135 188.042 9.63135 188.042 9.46919C188.042 9.30702 188.005 9.17028 187.93 9.05892C187.856 8.94757 187.762 8.86324 187.648 8.80594C187.535 8.74864 187.417 8.72 187.296 8.72H186.148V11.1135H186.566ZM186.566 9.04756H187.17C187.274 9.04756 187.369 9.08 187.457 9.14486C187.544 9.20973 187.588 9.31783 187.588 9.46919C187.588 9.61621 187.544 9.72919 187.457 9.80811C187.369 9.88702 187.27 9.92648 187.16 9.92648L186.566 9.92653L186.566 9.04756ZM87.4528 6.98249C90.7682 6.98249 93.0712 9.41342 93.1169 13.1193L93.1176 13.232V13.4188C93.1176 17.2399 90.8534 19.8318 87.4528 19.8318C85.7556 19.8318 84.3452 19.1157 83.4972 17.9719L83.4489 17.9054L83.4285 17.8759L83.4284 23.8716H81.2743V7.19265H83.4284L83.4285 8.99525L83.4437 8.97406C84.2628 7.86748 85.7692 7.04588 87.2771 6.98599L87.3658 6.98335L87.4528 6.98249ZM87.2426 8.80994C84.8993 8.80994 83.3907 10.3969 83.3588 13.2335L83.3583 13.5122C83.3583 16.4407 84.8134 18.0043 87.266 18.0043C89.5958 18.0043 90.8657 16.4657 90.8931 13.6069L90.8935 13.3254C90.8935 10.491 89.4037 8.80994 87.2426 8.80994ZM46.5789 2.49903C43.4081 2.49903 41.1009 4.4729 41.1009 7.1373C41.1009 9.57969 42.4206 10.8791 45.3505 11.5724L45.5551 11.6193C45.6242 11.6346 45.6941 11.6496 45.7648 11.6642L45.9797 11.7074C46.016 11.7144 46.0524 11.7214 46.0891 11.7283L46.3118 11.7687L46.5396 11.8074L46.7727 11.8444L46.967 11.8766L47.1554 11.9096L47.3379 11.9433C47.3679 11.9489 47.3976 11.9546 47.427 11.9604L47.6009 11.9953L47.7691 12.0311L47.9317 12.0678L48.0887 12.1056L48.2403 12.1443L48.3866 12.1842L48.5275 12.2252C48.5506 12.2322 48.5734 12.2392 48.596 12.2462L48.7292 12.2891C50.1003 12.7459 50.6273 13.4168 50.7086 14.5881L50.7151 14.7012C50.7167 14.7394 50.718 14.7781 50.7188 14.8174L50.7201 14.9366C50.7201 16.7236 49.1636 17.981 47.0225 17.981C44.3283 17.981 43.1841 16.9862 42.7891 14.8687L42.7627 14.7191C42.7543 14.6687 42.7463 14.6176 42.7387 14.5659L42.7171 14.409L42.7049 14.3148H40.5284L40.5411 14.4344C40.9031 17.8316 42.9632 19.8318 47.0225 19.8318C50.3818 19.8318 52.8975 17.6731 52.8975 14.7965C52.8975 12.389 51.8257 11.0683 49.3029 10.307L49.1109 10.2509C48.9162 10.1959 48.7133 10.144 48.5021 10.0949L48.288 10.0467C48.1434 10.0152 47.9951 9.98497 47.843 9.95588L47.612 9.91313C47.4561 9.88519 47.2963 9.85839 47.1327 9.83267L46.9371 9.80243L46.6553 9.75594L46.4749 9.72411L46.3005 9.69157L46.132 9.65823L45.9693 9.62408L45.8122 9.58904L45.6607 9.55308C45.6112 9.54093 45.5626 9.52862 45.5148 9.51614L45.3743 9.47817C45.3513 9.47176 45.3286 9.46529 45.3061 9.45879L45.1736 9.4192C45.1303 9.40581 45.0878 9.39223 45.0463 9.37845L44.9241 9.33649C44.7846 9.28683 44.6553 9.23461 44.5357 9.17948L44.4356 9.13149C43.7022 8.76618 43.3618 8.27625 43.251 7.56674L43.2376 7.47084L43.2268 7.37227L43.2186 7.271L43.2128 7.16698C43.212 7.14941 43.2113 7.13173 43.2108 7.11393L43.2085 7.00569C43.2083 6.98741 43.2083 6.96901 43.2083 6.95049C43.2083 5.36988 44.4445 4.34984 46.5789 4.34984C48.8682 4.34984 50.0128 5.20327 50.3951 7.22742L50.4117 7.31546H52.4431L52.4299 7.19551C52.098 4.18422 49.984 2.49903 46.5789 2.49903ZM176.658 6.98249C180.168 6.98249 182.715 9.55581 182.765 13.1916L182.766 13.302V13.4889C182.766 17.2063 180.204 19.8318 176.634 19.8318C173.144 19.8318 170.6 17.2118 170.55 13.6213L170.549 13.5122V13.3254C170.549 9.62682 173.116 6.98249 176.658 6.98249ZM176.658 8.80994C174.307 8.80994 172.805 10.5291 172.774 13.2377L172.773 13.5122C172.773 16.2611 174.269 18.0043 176.658 18.0043C178.999 18.0043 180.51 16.2737 180.541 13.5988L180.542 13.3488C180.542 10.5794 179.022 8.80994 176.658 8.80994ZM163.097 1.35481V19.6216H160.943L160.943 17.7719L160.926 17.7959C160.097 18.9133 158.552 19.7665 157.045 19.8282L156.959 19.8309L156.872 19.8318C153.552 19.8318 151.299 17.4656 151.254 13.7649L151.254 13.6523V13.4655C151.254 9.66296 153.642 6.98249 157.059 6.98249C158.74 6.98249 160.021 7.64298 160.861 8.77848L160.911 8.84718L160.943 8.89297L160.943 1.35481H163.097ZM157.245 8.80994C154.895 8.80994 153.508 10.4415 153.478 13.2801L153.478 13.3721V13.5589C153.478 16.3899 154.917 18.0043 157.082 18.0043C159.438 18.0043 160.98 16.4072 161.012 13.5795L161.013 13.4889V13.302C161.013 10.3391 159.661 8.80994 157.245 8.80994ZM105.511 6.98249C108.799 6.98249 111.06 9.10889 111.105 13.0422L111.106 13.162V13.9005H101.911L101.915 13.9704C102.055 16.5458 103.304 17.9398 105.561 18.0021L105.641 18.0038L105.721 18.0043C107.544 18.0043 108.58 17.3495 108.847 16.0346L108.876 15.8794H111.032L111.011 16.0057C110.593 18.4435 108.591 19.8318 105.698 19.8318C102.169 19.8318 99.7317 17.3551 99.6833 13.6483L99.6826 13.5356V13.3488C99.6826 9.60555 102.083 6.98249 105.511 6.98249ZM105.511 8.80994C103.659 8.80994 102.37 10.0257 102.004 12.0716L101.996 12.1198H108.896L108.89 12.0603C108.676 9.86703 107.56 8.83686 105.589 8.81047L105.511 8.80994ZM140.982 7.19265H138.828V15.0301C138.828 18.2144 140.457 19.8318 143.185 19.8318L143.279 19.831C144.895 19.8044 146.222 19.0898 146.936 18.0106L146.952 17.9844L146.953 19.6216H149.107V7.19265H146.953V14.7031C146.953 16.6745 145.549 17.9343 143.699 17.9343C141.831 17.9343 140.982 17.0107 140.982 14.9366V7.19265ZM122.512 2.49903C119.341 2.49903 117.034 4.4729 117.034 7.1373C117.034 9.18666 117.963 10.4313 119.993 11.1884L120.162 11.2495C120.506 11.3696 120.879 11.4768 121.284 11.5724L121.488 11.6193C121.557 11.6346 121.627 11.6496 121.698 11.6642L121.913 11.7074C121.949 11.7144 121.985 11.7214 122.022 11.7283L122.245 11.7687L122.473 11.8074L122.706 11.8444L122.9 11.8766L123.088 11.9096L123.271 11.9433C123.301 11.9489 123.331 11.9546 123.36 11.9604L123.534 11.9953L123.702 12.0311L123.865 12.0678L124.022 12.1056L124.173 12.1443L124.32 12.1842L124.461 12.2252C124.484 12.2322 124.506 12.2392 124.529 12.2462L124.662 12.2891L124.79 12.3332C124.832 12.3482 124.873 12.3633 124.913 12.3787L125.031 12.4257C126.11 12.8703 126.553 13.5056 126.638 14.5327L126.645 14.6443C126.646 14.6631 126.647 14.6821 126.648 14.7012L126.652 14.8174C126.653 14.8566 126.653 14.8964 126.653 14.9366C126.653 16.7236 125.097 17.981 122.956 17.981C120.481 17.981 119.314 17.1416 118.834 15.3635L118.799 15.2267C118.771 15.1111 118.745 14.9918 118.722 14.8687L118.696 14.7191L118.672 14.5659C118.668 14.5401 118.664 14.5141 118.661 14.4879L118.638 14.3148H116.461L116.474 14.4344C116.836 17.8316 118.896 19.8318 122.956 19.8318C126.315 19.8318 128.831 17.6731 128.831 14.7965C128.831 12.4492 127.812 11.135 125.422 10.3652L125.236 10.307L125.044 10.2509C124.849 10.1959 124.646 10.144 124.435 10.0949L124.221 10.0467C124.076 10.0152 123.928 9.98497 123.776 9.95588L123.545 9.91313C123.389 9.88519 123.229 9.85839 123.066 9.83267L122.87 9.80243L122.681 9.7716L122.497 9.74012L122.32 9.70793L122.149 9.67499C122.12 9.66944 122.093 9.66385 122.065 9.65823L121.902 9.62408L121.745 9.58904L121.594 9.55308C121.544 9.54093 121.496 9.52862 121.448 9.51614L121.307 9.47817L121.172 9.43914L121.042 9.39897C121.021 9.39217 121 9.38534 120.979 9.37845L120.857 9.33649C119.761 8.94627 119.3 8.39827 119.177 7.51911L119.165 7.42188L119.155 7.32198L119.148 7.21934C119.147 7.20201 119.147 7.18455 119.146 7.16698L119.142 7.06016C119.142 7.02409 119.141 6.98752 119.141 6.95049C119.141 5.36988 120.378 4.34984 122.512 4.34984C124.771 4.34984 125.916 5.18095 126.313 7.14812L126.345 7.31546H128.376L128.363 7.19551C128.031 4.18422 125.917 2.49903 122.512 2.49903ZM133.879 4.41384H131.725V7.19265H129.974V9.04346H131.725V16.4545C131.725 18.5248 132.939 19.7851 135.125 19.7851C135.795 19.7851 136.261 19.7094 136.739 19.5495L136.891 19.4966V17.6275L136.743 17.6848C136.312 17.8525 135.854 17.9343 135.288 17.9343L135.232 17.9336C134.337 17.9116 133.879 17.3628 133.879 16.2677L133.879 9.04346H136.727V7.19265H133.879L133.879 4.41384ZM57.5722 7.19265H55.4181V19.6216H57.5722V7.19265ZM74.1161 6.98249L74.0266 6.98323C72.3852 7.01033 70.7888 7.78107 69.9685 9.10662L69.9522 9.13405L69.9398 9.10642C69.296 7.69017 68.0212 6.98249 66.3647 6.98249L66.2762 6.98328C64.8051 7.00981 63.5387 7.69658 62.8484 8.73345L62.8307 8.76065L62.8306 7.19265H60.6765V19.6216H62.8306V12.0411C62.8306 10.1024 64.1973 8.88 65.9445 8.88C67.6221 8.88 68.4279 9.7827 68.4279 11.8076V19.6216H70.582V12.0411C70.582 10.1024 71.9487 8.88 73.6958 8.88C75.3735 8.88 76.1793 9.7827 76.1793 11.8076V19.6216H78.3334V11.9477C78.3334 8.66495 76.6894 6.98249 74.1161 6.98249ZM168.355 7.19265H166.201V19.6216H168.355V7.19265ZM97.4888 1.35481H95.3114V19.6216H97.4888V1.35481ZM167.243 2.07871C166.483 2.07871 165.851 2.71089 165.851 3.47113C165.851 4.23138 166.483 4.86357 167.243 4.86357C168.004 4.86357 168.636 4.23138 168.636 3.47113C168.636 2.71089 168.004 2.07871 167.243 2.07871ZM56.4601 2.07871C55.7 2.07871 55.0679 2.71089 55.0679 3.47113C55.0679 4.23138 55.7 4.86357 56.4601 4.86357C57.2203 4.86357 57.8524 4.23138 57.8524 3.47113C57.8524 2.71089 57.2203 2.07871 56.4601 2.07871Z" fill="white"/>
</g>
<defs>
<clipPath id="clip0_1304_106">
<rect width="189.622" height="24" fill="white"/>
</clipPath>
</defs>
</svg>
