<svg width="96" height="40" viewBox="0 0 96 40" fill="none" xmlns="http://www.w3.org/2000/svg">
<g clip-path="url(#clip0_1304_232)">
<path d="M90.2187 38.8163L76.1295 0.0255971L76.1198 0H75.8417L72.9404 7.9714L67.6585 22.4834L67.6461 22.4719C65.8155 20.8566 63.2328 19.8469 59.9801 19.4708L58.988 19.3685L59.9722 19.2422C65.3362 18.2784 68.9419 14.8907 68.9419 10.8092C68.9419 5.21218 63.6776 1.30548 56.137 1.30548H40.4475V1.58881H45.0065V30.5095L33.9343 0.0255971L33.9246 0H33.6465L30.7452 7.9714L19.5547 38.7166L19.4858 38.7245C19.2946 38.7481 19.1054 38.7669 18.9183 38.781C18.6367 38.8031 18.3569 38.8163 18.0762 38.8163H6.7692L28.2622 1.58881L28.422 1.309H2.13518V12.8252H2.41411C2.46353 7.21584 5.7303 1.58881 12.9479 1.58881H21.6554L0 39.0953H29.174V28.0619H28.8951C28.8572 32.951 26.0856 37.5947 20.0587 38.6433L19.8672 38.676L24.457 26.06H37.3149L41.9481 38.8163H37.3776V39.0953H55.3161V38.8163H50.7262V19.5741H56.0222C61.4118 19.5741 64.5029 21.982 64.5029 26.1783V29.5915C64.5029 29.9676 64.5285 30.5175 64.5568 30.9773V30.9941L61.7102 38.8146H57.9915V39.0935H65.6893V38.8146H62.0103L64.6027 31.6932C64.608 31.762 64.6106 31.8035 64.6106 31.8035L64.6821 32.4452L64.751 32.8698C65.1835 35.4957 66.188 37.4261 67.7353 38.6071L67.9577 38.7687C69.1334 39.586 70.5943 40 72.3022 40C74.5645 40 76.073 39.436 77.3184 38.1084L77.1552 37.9549C76.0077 39.0141 75.0447 39.443 73.8381 39.443C71.7823 39.443 70.7064 36.9495 70.7064 34.4904V29.7081C70.7173 28.5214 70.5315 27.3412 70.1564 26.2153L70.1053 26.067V26.0617H79.5101L84.1433 38.8181H79.5728V39.097H95.0963V38.8181L90.2187 38.8163ZM24.5594 25.7811L30.8935 8.3792L37.2134 25.7811H24.5594ZM50.7289 19.2943V1.58881H54.7715C60.1717 1.58881 63.0227 4.79908 63.0227 10.8692C63.0227 17.3251 61.3862 19.2943 56.0222 19.2943H50.7289ZM69.9958 25.7811L69.9684 25.7122C69.5505 24.6943 68.9421 23.7656 68.1757 22.9759L67.9109 22.7111L67.8827 22.6846L73.0852 8.3792L79.4051 25.7811H69.9958Z" fill="#0D0D0D"/>
</g>
<defs>
<clipPath id="clip0_1304_232">
<rect width="95.0963" height="40" fill="white"/>
</clipPath>
</defs>
</svg>
